<svg xmlns="http://www.w3.org/2000/svg"  viewBox="0 0 100 100" width="400px" height="400px"><path d="M 59.632812 3.8847656 C 56.734952 3.8847656 54.224412 5.1513014 52.470703 7.0449219 C 50.716994 8.9385423 49.640142 11.408055 49.164062 14.027344 C 48.852522 15.740817 49.015239 17.346056 49.521484 18.773438 C 46.988954 18.027428 44.941618 17.569012 43.439453 17.322266 C 41.187306 16.952326 39.892578 17.001953 39.892578 17.001953 A 2.0002 2.0002 0 0 0 39.042969 17.244141 C 39.042969 17.244141 30.744836 21.767839 22.783203 26.949219 C 18.802387 29.539909 14.908559 32.282885 12.087891 34.806641 C 10.677556 36.068519 9.530496 37.255921 8.7382812 38.505859 C 8.3421739 39.130829 8.0219099 39.780675 7.8769531 40.546875 C 7.7319963 41.313075 7.8214932 42.256525 8.2851562 43.029297 C 9.1010143 44.388637 10.658206 44.768442 11.916016 44.757812 C 13.173826 44.747183 14.472099 44.445856 15.902344 43.998047 C 18.762833 43.102428 22.109543 41.557816 25.375 39.888672 C 29.264666 37.900462 30.527607 37.034676 32.929688 35.603516 L 23.169922 59.191406 C 23.053651 59.424252 21.582996 62.403863 20.796875 65.941406 C 20.387847 67.782034 20.144379 69.781387 20.501953 71.748047 C 20.859528 73.714706 22.009184 75.740921 24.105469 76.789062 C 27.177402 78.325029 30.244023 77.765178 32.363281 76.994141 C 32.150057 78.250639 31.938614 79.511722 31.755859 80.746094 C 31.292157 83.87806 30.944703 86.841218 30.791016 89.238281 C 30.714176 90.436813 30.683689 91.489606 30.720703 92.392578 C 30.757713 93.29555 30.750732 93.974125 31.210938 94.894531 C 32.009079 96.490816 33.535904 97.655682 35.404297 97.863281 C 37.27269 98.07088 39.351155 97.078737 40.664062 95.109375 C 41.51303 93.835924 42.369704 91.741639 43.603516 88.755859 C 44.837328 85.77008 46.275702 82.107565 47.648438 78.544922 C 49.240593 74.412817 50.564323 70.895878 51.546875 68.265625 A 2.0002 2.0002 0 0 0 51.904297 67.613281 L 52.652344 65.294922 C 52.676538 65.229477 52.876953 64.691406 52.876953 64.691406 A 2.0002487 2.0002487 0 0 0 52.978516 64.28125 L 61.240234 38.673828 L 76.238281 44.849609 A 2.0002 2.0002 0 0 0 78.195312 44.603516 C 78.195312 44.603516 82.701693 41.250626 86.789062 37.359375 C 88.832748 35.41375 90.77901 33.354282 92.082031 31.324219 C 92.733542 30.309187 93.249351 29.302831 93.449219 28.154297 C 93.649087 27.005763 93.36988 25.541752 92.414062 24.585938 C 91.606943 23.778817 90.458563 23.459903 89.490234 23.482422 C 88.521906 23.504942 87.643634 23.775704 86.773438 24.140625 C 85.033045 24.870467 83.297621 26.0417 81.664062 27.283203 C 79.022672 29.29066 77.550916 30.790605 76.75 31.570312 C 75.454562 30.812426 69.368107 27.284749 62.859375 24.107422 C 64.620988 23.495857 66.141828 22.631114 67.347656 21.445312 C 69.167576 19.655621 70.132813 17.156614 70.132812 14.384766 C 70.132812 11.909242 68.944177 9.476233 67.119141 7.4746094 C 65.294105 5.4729857 62.688893 3.8847656 59.632812 3.8847656 z M 59.632812 7.8847656 C 61.267733 7.8847656 62.911849 8.7965454 64.164062 10.169922 C 65.416278 11.543298 66.132813 13.360289 66.132812 14.384766 C 66.132812 16.303917 65.598049 17.556193 64.542969 18.59375 C 63.487888 19.631307 61.762132 20.465479 59.273438 20.917969 C 55.957783 21.520619 52.333933 18.953406 53.099609 14.742188 C 53.46253 12.745475 54.290756 10.966051 55.404297 9.7636719 C 56.517838 8.5612923 57.838675 7.8847656 59.632812 7.8847656 z M 40.464844 21.035156 C 40.634206 21.029156 41.065174 20.986046 42.791016 21.269531 C 44.073536 21.480199 45.886749 21.884639 48.154297 22.542969 L 45.486328 24.142578 A 1.0001 1.0001 0 1 0 46.513672 25.857422 L 50.705078 23.341797 C 51.244295 23.520713 51.746462 23.677102 52.330078 23.884766 C 52.632398 23.992338 52.959993 24.121107 53.277344 24.242188 L 47.552734 27.105469 A 1.0001163 1.0001163 0 1 0 48.447266 28.894531 L 55.75 25.244141 C 56.372364 25.512087 57.036215 25.829302 57.683594 26.125 L 48.521484 31.123047 A 1.0001 1.0001 0 1 0 49.478516 32.876953 L 59.943359 27.167969 C 60.526352 27.448348 61.108609 27.745165 61.693359 28.035156 L 55.552734 31.105469 A 1.0001163 1.0001163 0 1 0 56.447266 32.894531 L 63.931641 29.152344 C 66.679049 30.559283 68.98491 31.819515 71.074219 32.974609 L 68.082031 37.164062 L 60.761719 34.150391 A 2.0002 2.0002 0 0 0 58.095703 35.386719 L 57.423828 37.470703 L 52.683594 39.050781 A 1.0005646 1.0005646 0 1 0 53.316406 40.949219 L 56.660156 39.833984 L 55.857422 42.326172 L 50.683594 44.050781 A 1.0005646 1.0005646 0 1 0 51.316406 45.949219 L 55.095703 44.689453 L 54.302734 47.142578 L 50.757812 48.029297 A 1.0004596 1.0004596 0 1 0 51.242188 49.970703 L 53.580078 49.386719 L 52.912109 51.457031 C 45.527633 48.344872 39.049645 46.347698 33.275391 45.230469 L 38.847656 31.765625 A 2.0002 2.0002 0 0 0 35.939453 29.304688 C 35.939453 29.304688 34.296038 30.327441 31.865234 31.748047 L 29.427734 27.482422 C 35.087747 23.994034 39.877294 21.35726 40.464844 21.035156 z M 89.488281 27.507812 C 89.428421 27.812541 89.189674 28.425382 88.716797 29.162109 C 87.747506 30.672233 85.957815 32.628766 84.03125 34.462891 C 80.570761 37.757339 77.397486 40.118378 76.642578 40.689453 L 69.982422 37.947266 L 72.841797 33.943359 C 74.695014 34.982358 75.988281 35.724609 75.988281 35.724609 A 2.0002 2.0002 0 0 0 78.414062 35.414062 C 78.414062 35.414062 81.103052 32.73379 84.085938 30.466797 C 85.57738 29.3333 87.154455 28.317033 88.320312 27.828125 C 88.859187 27.602146 89.260237 27.525523 89.488281 27.507812 z M 27.726562 28.537109 L 30.126953 32.740234 C 28.137771 33.878146 25.92234 35.115942 23.554688 36.326172 C 20.391769 37.942903 17.15026 39.416666 14.707031 40.181641 C 13.572431 40.536884 12.673715 40.687814 12.083984 40.716797 C 12.104694 40.681497 12.093287 40.684194 12.117188 40.646484 C 12.555442 39.955017 13.494319 38.915856 14.755859 37.787109 C 17.278941 35.529615 21.072613 32.835091 24.966797 30.300781 C 25.891867 29.698751 26.816136 29.10915 27.726562 28.537109 z M 41.005859 35.382812 C 40.875984 35.379719 40.743484 35.402375 40.615234 35.453125 C 40.101234 35.656125 39.849734 36.238953 40.052734 36.751953 C 40.255734 37.265953 40.838563 37.5155 41.351562 37.3125 C 41.865562 37.1095 42.115109 36.528625 41.912109 36.015625 C 41.759859 35.630875 41.395484 35.392094 41.005859 35.382812 z M 38.753906 41.652344 C 38.623984 41.64925 38.489828 41.671906 38.361328 41.722656 C 37.847328 41.925656 37.597781 42.508484 37.800781 43.021484 C 38.003781 43.535484 38.584656 43.785031 39.097656 43.582031 C 39.611656 43.379031 39.863156 42.798156 39.660156 42.285156 C 39.507906 41.900406 39.143672 41.661625 38.753906 41.652344 z M 44.023438 43 C 43.893641 42.996984 43.761063 43.019562 43.632812 43.070312 C 43.118813 43.273313 42.867312 43.854188 43.070312 44.367188 C 43.273313 44.881187 43.854188 45.132688 44.367188 44.929688 C 44.881187 44.726687 45.132688 44.145812 44.929688 43.632812 C 44.776687 43.247313 44.412828 43.009047 44.023438 43 z M 32.496094 47.115234 C 38.246989 48.193043 44.774726 50.188743 52.294922 53.369141 L 48.857422 64.021484 C 48.832518 64.08883 48.704169 64.435274 48.662109 64.548828 L 39.097656 61.871094 L 40.949219 56.316406 A 1.0001 1.0001 0 0 0 40.011719 54.986328 A 1.0001 1.0001 0 0 0 39.050781 55.683594 L 37.167969 61.330078 L 35.539062 60.875 L 36.707031 59.707031 A 1.0001 1.0001 0 0 0 35.980469 57.990234 A 1.0001 1.0001 0 0 0 35.292969 58.292969 L 33.330078 60.255859 L 31.871094 59.847656 L 34.599609 57.800781 A 1.0001 1.0001 0 0 0 34.023438 55.992188 A 1.0001 1.0001 0 0 0 33.400391 56.199219 L 29.443359 59.167969 L 27.708984 58.681641 L 28.447266 56.896484 L 33.371094 54.927734 A 1.0001 1.0001 0 0 0 32.988281 52.994141 A 1.0001 1.0001 0 0 0 32.628906 53.072266 L 29.515625 54.318359 L 30.232422 52.583984 L 34.371094 50.927734 A 1.0001 1.0001 0 0 0 33.988281 48.994141 A 1.0001 1.0001 0 0 0 33.628906 49.072266 L 31.300781 50.003906 L 32.496094 47.115234 z M 26.132812 62.394531 L 34.933594 64.857422 C 34.360959 66.930676 33.791929 69.456159 33.255859 72.144531 A 2.0013195 2.0013195 0 0 0 32.917969 72.316406 C 32.917969 72.316406 28.826994 74.677169 25.894531 73.210938 C 24.990816 72.759079 24.640472 72.160294 24.435547 71.033203 C 24.230621 69.906113 24.362157 68.342966 24.703125 66.808594 C 25.083915 65.095039 25.671909 63.512273 26.132812 62.394531 z M 38.787109 65.9375 L 47.255859 68.308594 C 46.323702 70.792538 45.17341 73.842164 43.916016 77.105469 C 42.54975 80.651325 41.120141 84.293717 39.908203 87.226562 C 38.696265 90.159408 37.530969 92.598076 37.335938 92.890625 C 36.648845 93.921263 36.22731 93.92912 35.845703 93.886719 C 35.489469 93.847138 35.062416 93.549075 34.841797 93.181641 C 34.846304 93.12931 34.7375 92.733576 34.716797 92.228516 C 34.688967 91.549589 34.7101 90.604203 34.78125 89.494141 C 34.923593 87.274016 35.260468 84.387815 35.712891 81.332031 C 36.519451 75.884311 37.712758 69.855036 38.787109 65.9375 z M 69.484375 79.996094 C 67.13428 79.996094 65.071205 81.036196 63.652344 82.568359 C 62.233482 84.100523 61.380061 86.072459 61.001953 88.152344 C 60.000484 93.657162 65.003589 97.873442 69.841797 96.994141 C 72.211148 96.563656 74.242317 95.71552 75.726562 94.255859 C 77.210809 92.796199 78 90.735933 78 88.511719 C 78 86.444911 77.034068 84.507947 75.568359 82.900391 C 74.102651 81.292834 71.992794 79.996094 69.484375 79.996094 z"/></svg>